<?xml version="1.0" encoding="utf-8"?>
<!-- Generator: Adobe Illustrator 26.0.0, SVG Export Plug-In . SVG Version: 6.00 Build 0)  -->
<svg version="1.1" id="图层_1" xmlns="http://www.w3.org/2000/svg" xmlns:xlink="http://www.w3.org/1999/xlink" x="0px" y="0px"
	 viewBox="0 0 200 200" style="enable-background:new 0 0 200 200;" xml:space="preserve">
<path d="M94.8,143.1c0-28.3,22.9-51.3,51.3-51.3c11.5,0,22.1,3.8,30.6,10.1V86.9c-0.1-6.3-2.2-11.4-6.4-15.5s-9.3-6.2-15.5-6.3H17.1
	v69.9c0.3,12.4,4.6,22.7,12.8,30.9c8.2,8.2,18.5,12.5,30.9,12.8h48.3C100.3,169.4,94.9,156.9,94.8,143.1L94.8,143.1z"/>
<g>
	<rect x="136.9" y="142.1" width="6.3" height="8.6"/>
	<path d="M172.2,117.2c-6.9-6.9-15.6-10.5-26-10.8c-10.5,0.2-19.2,3.8-26.1,10.8c-6.9,6.9-10.5,15.6-10.8,26
		c0.2,10.5,3.8,19.2,10.8,26c6.9,6.9,15.6,10.4,26,10.7c10.4-0.2,19-3.8,26-10.8c6.9-6.9,10.5-15.6,10.8-26
		C182.6,132.7,179.1,124.1,172.2,117.2z M169.2,155.9H153v10.3h-9.8v-10h-19.7v-5.2h3.8v-14h15.9v-7.3h-6.5l-2.9,5.7h-10.7l7.5-15.1
		h10.9l-2.1,4.2h28.3v5.2H153v7.3h13.6v5.2H153v8.6h16.1V155.9z"/>
</g>
<path d="M130.8,19h-6H28c-3.3,0.1-6,1.2-7.9,3.4c-2,2.2-3,4.7-2.9,7.5c0.1,2.8,1.2,5.5,3.3,8c2.2,2.5,4.7,3.8,7.5,3.9h96.7h6h46V19
	H130.8z"/>
</svg>
