<?xml version="1.0" encoding="utf-8"?>
<!-- Generator: Adobe Illustrator 23.0.0, SVG Export Plug-In . SVG Version: 6.00 Build 0)  -->
<svg version="1.1" id="图层_1" xmlns="http://www.w3.org/2000/svg" xmlns:xlink="http://www.w3.org/1999/xlink" x="0px" y="0px"
	 viewBox="0 0 1024 1024" style="enable-background:new 0 0 1024 1024;" xml:space="preserve">
<style type="text/css">
	.st0{fill:#231815;}
</style>
<g>
	<g>
		<path class="st0" d="M772.9,927.6H251.1c-53,0-102-37.4-111.7-85.1L66.2,482c-7.2-35.5,0.7-70.5,21.6-96.1
			c19.7-24.1,48.4-37.3,80.8-37.3h687c32.4,0,61.1,13.3,80.7,37.3c20.9,25.6,28.8,60.6,21.6,96.1l-73.2,360.5
			C874.9,890.2,825.8,927.6,772.9,927.6z M168.5,417.1c-11.6,0-21.2,4.2-27.7,12.2c-7.8,9.6-10.6,23.9-7.5,39.1l73.2,360.5
			c3.3,16.1,24.1,30.2,44.6,30.2h521.7c20.5,0,41.3-14.1,44.6-30.2l73.2-360.5c3.1-15.2,0.4-29.5-7.5-39.1
			c-6.5-8-16.1-12.2-27.7-12.2H168.5z"/>
	</g>
	<g>
		<path class="st0" d="M900.4,317.2c-18.9,0-34.3-15.3-34.3-34.3v-27.8c0-6.9-7.7-12.7-16.8-12.7H357.1c-26.3,0-51.6-11.8-67.6-31.6
			l-30.4-37.6c-3.1-3.9-8.6-6.2-14.4-6.2h-70c-9.1,0-16.8,5.8-16.8,12.7V283c0,18.9-15.4,34.3-34.3,34.3S89.3,301.9,89.3,283V179.8
			c0-44.8,38.3-81.3,85.4-81.3h70c26.3,0,51.6,11.8,67.6,31.6l30.5,37.6c3.1,3.9,8.6,6.2,14.3,6.2h492.2c47.1,0,85.4,36.4,85.4,81.2
			V283C934.7,301.9,919.3,317.2,900.4,317.2z"/>
	</g>
	<g>
		<path class="st0" d="M669.2,606.2H368.9c-18.9,0-34.3-15.3-34.3-34.3s15.4-34.3,34.3-34.3h300.3c18.9,0,34.3,15.3,34.3,34.3
			S688.1,606.2,669.2,606.2z"/>
	</g>
</g>
</svg>
