<?xml version="1.0" standalone="no"?><!DOCTYPE svg PUBLIC "-//W3C//DTD SVG 1.1//EN" "http://www.w3.org/Graphics/SVG/1.1/DTD/svg11.dtd"><svg t="1642128623626" class="icon" viewBox="0 0 1024 1024" version="1.1" xmlns="http://www.w3.org/2000/svg" p-id="6402" xmlns:xlink="http://www.w3.org/1999/xlink" width="200" height="200"><defs><style type="text/css"></style></defs><path d="M254.94336 946.2784a229.5808 229.5808 0 0 0 103.2448-115.8144 316.1344 316.1344 0 0 0 308.1216-0.3072 229.5296 229.5296 0 0 0 103.0144 115.9168 463.8976 463.8976 0 0 1-514.3808 0.2048zM724.26816 742.4a149.888 149.888 0 1 1 149.8624 153.6 151.7568 151.7568 0 0 1-149.8624-153.6zM-0.00704 742.4a149.888 149.888 0 1 1 149.8368 153.6 151.7568 151.7568 0 0 1-149.8368-153.6z m50.7648-207.0272A457.088 457.088 0 0 1 185.23456 237.3632a467.0976 467.0976 0 0 1 89.2416-69.6576 233.2672 233.2672 0 0 0 60.0064 142.8736 308.48 308.48 0 0 0-131.3792 207.8976A221.952 221.952 0 0 0 149.80416 512a218.9056 218.9056 0 0 0-99.0208 23.3984z m922.368-0.3328a222.0032 222.0032 0 0 0-152.1664-16.4608 305.6128 305.6128 0 0 0-147.584-218.2912 234.112 234.112 0 0 0 51.5328-146.2784 465.3824 465.3824 0 0 1 208.7168 220.16 456.1408 456.1408 0 0 1 39.552 160.8448zM349.66336 153.6a149.888 149.888 0 1 1 149.8624 153.6 151.7312 151.7312 0 0 1-149.8624-153.6z" fill="#333333" p-id="6403"></path></svg>