<?xml version="1.0" encoding="utf-8"?>
<!-- Generator: Adobe Illustrator 23.0.0, SVG Export Plug-In . SVG Version: 6.00 Build 0)  -->
<svg version="1.1" id="图层_1" xmlns="http://www.w3.org/2000/svg" xmlns:xlink="http://www.w3.org/1999/xlink" x="0px" y="0px"
	 viewBox="0 0 1024 1024" style="enable-background:new 0 0 1024 1024;" xml:space="preserve">
<style type="text/css">
	.st0{fill:#231815;}
</style>
<g>
	<path class="st0" d="M957.1,746.8l-72.2-531.1C875.9,149.1,825.1,97,769.3,97H254.7c-55.7,0-106.5,52.1-115.5,118.6L66.9,746.8
		c-7.9,57.8,5,112.4,34.3,146.1c19.2,22,44.7,34.1,71.9,34.1h677.6c27.2,0,52.8-12.1,71.9-34.1C952.1,859.2,964.9,804.6,957.1,746.8
		z M216.1,226.1c4.3-31.8,25.4-51.3,38.6-51.3h514.6c13.2,0,34.3,19.5,38.6,51.3l54.3,399H161.9L216.1,226.1z M864.2,841.8
		c-6.5,7.4-11.5,7.4-13.4,7.4H173.2c-1.9,0-6.9,0-13.4-7.4c-11-12.6-21.7-42.2-15.9-84.5l7.4-54.4h721.4l7.4,54.4
		C885.8,799.6,875.1,829.2,864.2,841.8z"/>
	<path class="st0" d="M637.1,738.4H493.2c-21.4,0-38.9,17.4-38.9,38.9c0,21.5,17.4,38.9,38.9,38.9h143.8c21.4,0,38.9-17.4,38.9-38.9
		C675.9,755.8,658.5,738.4,637.1,738.4z"/>
	<path class="st0" d="M440.1,432.1h143.9c21.4,0,38.9-17.4,38.9-38.9c0-21.5-17.4-38.9-38.9-38.9H440.1c-21.4,0-38.9,17.4-38.9,38.9
		C401.2,414.6,418.6,432.1,440.1,432.1z"/>
	<path class="st0" d="M816.4,738.4h-51.8c-21.4,0-38.9,17.4-38.9,38.9c0,21.5,17.4,38.9,38.9,38.9h51.8c21.4,0,38.9-17.4,38.9-38.9
		C855.3,755.8,837.9,738.4,816.4,738.4z"/>
</g>
</svg>
