<?xml version="1.0" standalone="no"?><!DOCTYPE svg PUBLIC "-//W3C//DTD SVG 1.1//EN" "http://www.w3.org/Graphics/SVG/1.1/DTD/svg11.dtd"><svg t="1655192394435" class="icon" viewBox="0 0 1024 1024" version="1.1" xmlns="http://www.w3.org/2000/svg" p-id="2183" xmlns:xlink="http://www.w3.org/1999/xlink" width="16" height="16"><defs><style type="text/css"></style></defs><path d="M64 754.656a205.312 205.312 0 0 1 205.344-205.312h149.312a56 56 0 0 1 56 56v149.312a205.312 205.312 0 1 1-410.656 0zM960 269.344a205.312 205.312 0 0 1-205.344 205.312h-149.312a56 56 0 0 1-56-56V269.344a205.312 205.312 0 1 1 410.656 0zM64 269.344a205.312 205.312 0 1 1 410.656 0v149.312a56 56 0 0 1-56 56H269.344A205.312 205.312 0 0 1 64 269.344zM770.496 549.344a15.872 15.872 0 0 1 15.808 15.808v18.944c0 8.704 6.816 17.92 15.104 20.48l26.4 10.88a22.72 22.72 0 0 0 25.12-3.68l13.472-13.44a15.808 15.808 0 0 1 22.336 0l22.4 22.336a15.808 15.808 0 0 1 0 22.336l-13.44 13.44a22.656 22.656 0 0 0-3.744 25.088l10.88 26.496c2.592 8.32 11.776 15.04 20.48 15.04h18.976c8.64 0.064 15.776 7.136 15.712 15.84v31.584a15.84 15.84 0 0 1-15.776 15.808h-18.944a22.944 22.944 0 0 0-20.48 15.04l-10.88 26.464a22.72 22.72 0 0 0 3.68 25.12l13.504 13.44a15.84 15.84 0 0 1 0 22.368l-22.4 22.336a15.84 15.84 0 0 1-22.336 0l-13.376-13.44a22.592 22.592 0 0 0-25.12-3.68l-26.464 10.88a22.88 22.88 0 0 0-15.104 20.48v18.88a15.872 15.872 0 0 1-15.808 15.808h-31.552a15.872 15.872 0 0 1-15.84-15.808v-18.88a22.816 22.816 0 0 0-15.072-20.48l-26.528-10.88a22.528 22.528 0 0 0-24.992 3.648l-13.504 13.472a15.808 15.808 0 0 1-22.304 0l-22.368-22.336a15.872 15.872 0 0 1 0-22.368l13.44-13.44a22.72 22.72 0 0 0 3.744-25.12l-10.944-26.432a22.976 22.976 0 0 0-20.48-15.136h-18.944a15.84 15.84 0 0 1-15.808-15.776v-31.552c0-8.704 7.072-15.808 15.808-15.808h18.944c8.704 0 17.92-6.784 20.48-15.072l10.912-26.496a22.688 22.688 0 0 0-3.744-25.12l-13.376-13.44a15.776 15.776 0 0 1 0-22.336l22.336-22.304a15.776 15.776 0 0 1 22.304 0l13.472 13.44a22.656 22.656 0 0 0 25.088 3.68l26.464-10.816a22.848 22.848 0 0 0 15.072-20.544v-18.944a15.872 15.872 0 0 1 15.84-15.808h31.552z m-17.088 132.288a71.808 71.808 0 1 0 0 143.616 71.808 71.808 0 0 0 0-143.616z" p-id="2184"></path></svg>