<?xml version="1.0" encoding="utf-8"?>
<!-- Generator: Adobe Illustrator 23.0.0, SVG Export Plug-In . SVG Version: 6.00 Build 0)  -->
<svg version="1.1" id="图层_1" xmlns="http://www.w3.org/2000/svg" xmlns:xlink="http://www.w3.org/1999/xlink" x="0px" y="0px"
	 viewBox="0 0 1024 1024" style="enable-background:new 0 0 1024 1024;" xml:space="preserve">
<style type="text/css">
	.st0{fill:#231815;}
</style>
<path class="st0" d="M957.7,748l-72.3-531.2c-9.1-66.5-59.9-118.6-115.8-118.6H254.3c-55.8,0-106.7,52.1-115.8,118.6L66.3,748
	c-7.8,57.8,5,112.5,34.4,146.2c19.2,21.9,44.7,34,72,34h678.6c27.3,0,52.8-12.1,72-34C952.7,860.5,965.6,805.8,957.7,748z
	 M215.6,227.3c4.3-31.8,25.4-51.3,38.7-51.3h515.3c13.3,0,34.4,19.5,38.7,51.3l54.3,399.1H610.4c-21.5,0-38.9,17.4-38.9,38.9
	c0,32.8-26.7,59.5-59.5,59.5c-32.8,0-59.5-26.7-59.5-59.5c0-21.5-17.4-38.9-38.9-38.9H161.3L215.6,227.3z M864.7,843
	c-6.5,7.4-11.5,7.4-13.4,7.4H172.7c-1.9,0-6.9,0-13.4-7.4c-11-12.6-21.7-42.2-16-84.5l7.4-54.4h229.6
	c16.8,56.8,69.5,98.4,131.7,98.4c62.2,0,114.9-41.6,131.7-98.4h229.6l7.4,54.4C886.4,800.8,875.7,830.5,864.7,843z"/>
</svg>
