<?xml version="1.0" standalone="no"?><!DOCTYPE svg PUBLIC "-//W3C//DTD SVG 1.1//EN" "http://www.w3.org/Graphics/SVG/1.1/DTD/svg11.dtd"><svg t="1642128400767" class="icon" viewBox="0 0 1024 1024" version="1.1" xmlns="http://www.w3.org/2000/svg" p-id="2991" xmlns:xlink="http://www.w3.org/1999/xlink" width="200" height="200"><defs><style type="text/css"></style></defs><path d="M957.6 805.8s-62.9-191.7-112-374.9C802 268 771.5 111.2 771.5 111.2c-6.4-23.7-30.7-37.8-54.5-31.4l-300.7 80.6c-23.7 6.3-37.8 30.7-31.5 54.4 0 0 53.5 146.1 96.5 306.5 49.6 185.1 89.6 388 89.6 388 6.4 23.7 41.2 46.5 54.5 31.4 57-39.7 74.2-124.2 123.8-137.5 49.7-13.3 130.3 55 176.9 57 32.8 4.3 37.9-30.7 31.5-54.4zM73 759.9c-3 8.5-9.6 25.7-9 25.4 17.3 9 157.8-8 157.8-8l7.8 2.9s75.6 115.3 91.2 111.8c15.6-3.5 23.2-25.9 25-30.9C389 737.7 440 627.8 440 627.8L316.8 204.9S115.6 638.4 73 759.9z" fill="#040000" p-id="2992"></path></svg>