<?xml version="1.0" encoding="utf-8"?>
<!-- Generator: Adobe Illustrator 23.0.0, SVG Export Plug-In . SVG Version: 6.00 Build 0)  -->
<svg version="1.1" id="图层_1" xmlns="http://www.w3.org/2000/svg" xmlns:xlink="http://www.w3.org/1999/xlink" x="0px" y="0px"
	 viewBox="0 0 1024 1024" style="enable-background:new 0 0 1024 1024;" xml:space="preserve">
<style type="text/css">
	.st0{fill:#231815;}
</style>
<g>
	<g>
		<path class="st0" d="M512,509.9c-113.7,0-206.1-92.5-206.1-206.1S398.3,97.7,512,97.7s206.1,92.5,206.1,206.1
			S625.7,509.9,512,509.9z M512,160.6c-79,0-143.2,64.3-143.2,143.2S433,447.1,512,447.1s143.2-64.3,143.2-143.2
			S591,160.6,512,160.6z"/>
	</g>
	<g>
		<path class="st0" d="M839.4,928.1h-62.9V780.6c0-100.4-81.7-182-182-182h-165c-100.4,0-182,81.7-182,182v147.5h-62.9V780.6
			c0-135,109.9-244.9,244.9-244.9h165c135,0,244.9,109.9,244.9,244.9V928.1z"/>
	</g>
</g>
</svg>
